<?xml version="1.0" encoding="UTF-8" standalone="no"?>
<!-- Created with Inkscape (http://www.inkscape.org/) -->

<svg
   version="1.1"
   id="svg3464"
   xml:space="preserve"
   width="880"
   height="880"
   viewBox="0 0 880 880"
   sodipodi:docname="rhino-stencil-silhouette.svg"
   inkscape:version="0.92.4 (5da689c313, 2019-01-14)"
   xmlns:inkscape="http://www.inkscape.org/namespaces/inkscape"
   xmlns:sodipodi="http://sodipodi.sourceforge.net/DTD/sodipodi-0.dtd"
   xmlns="http://www.w3.org/2000/svg"
   xmlns:svg="http://www.w3.org/2000/svg"
   xmlns:rdf="http://www.w3.org/1999/02/22-rdf-syntax-ns#"
   xmlns:cc="http://creativecommons.org/ns#"
   xmlns:dc="http://purl.org/dc/elements/1.1/"><metadata
     id="metadata3470"><rdf:RDF><cc:Work
         rdf:about=""><dc:format>image/svg+xml</dc:format><dc:type
           rdf:resource="http://purl.org/dc/dcmitype/StillImage" /><dc:title /></cc:Work></rdf:RDF></metadata><defs
     id="defs3468" /><sodipodi:namedview
     pagecolor="#ffffff"
     bordercolor="#666666"
     borderopacity="1"
     objecttolerance="10"
     gridtolerance="10"
     guidetolerance="10"
     inkscape:pageopacity="0"
     inkscape:pageshadow="2"
     inkscape:window-width="1920"
     inkscape:window-height="1018"
     id="namedview3466"
     showgrid="false"
     inkscape:zoom="0.60716364"
     inkscape:cx="691.69492"
     inkscape:cy="400.84746"
     inkscape:window-x="-8"
     inkscape:window-y="-8"
     inkscape:window-maximized="1"
     inkscape:current-layer="g3472"
     inkscape:showpageshadow="2"
     inkscape:pagecheckerboard="0"
     inkscape:deskcolor="#d1d1d1" /><g
     id="g3472"
     inkscape:groupmode="layer"
     inkscape:label="rhino-stencil-silhouette-freesvg.org"
     transform="matrix(1.3333333,0,0,-1.3333333,0,880)"><path
       d="m 211.768,423.718 c 6.526,2.145 16.924,7.032 23.435,4.891 10.139,-3.333 21.289,-0.345 28.403,7.61 l -2.725,-10.871 c -1.832,-7.313 -6.554,-13.57 -13.083,-17.34 -5.378,-3.105 -11.603,-4.303 -17.682,-3.474 8.046,2.26 14.979,7.157 19.658,14.18 l 4.164,6.247 c -6.751,-3.741 -14.865,-4.88 -23.014,-3.23 -4.341,0.879 -8.701,1.436 -13.043,1.665 z m -48.81,0 -14.471,-18.37 c -7.25,-2.07 -15.029,-1.11 -21.559,2.66 -6.529,3.77 -11.25,10.027 -13.084,17.34 l -2.725,10.871 c 7.114,-7.955 18.265,-10.943 28.403,-7.61 6.51,2.141 16.909,-2.746 23.436,-4.891 m 370.482,-29.131 12.597,-5.359 c 25.912,-11.023 55.196,-11.023 81.109,0 1.616,0.688 2.827,2.081 3.28,3.775 0.454,1.697 0.103,3.508 -0.951,4.911 -4.15,5.514 -4.15,13.107 0,18.623 l 6.841,-3.872 c 4.152,-2.348 6.715,-6.747 6.715,-11.515 0,-4.767 -2.563,-9.167 -6.715,-11.514 -22.519,-12.743 -47.913,-19.547 -73.788,-19.772 l -32.386,19.16 z m -387.806,-44.844 5.909,5.909 c 7.268,7.268 12.495,16.321 15.155,26.248 l -0.073,-8.11 1.019,-5.298 c 0.866,-4.508 -0.559,-9.152 -3.805,-12.398 -3.246,-3.245 -7.89,-4.67 -12.397,-3.803 z m 468.41,-187.561 -1.477,19.685 c -1.537,20.488 -6.871,40.791 -15.725,59.863 -7.694,16.574 -12.326,34.215 -13.664,52.014 -3.219,42.911 -25.672,83.478 -61.014,110.242 -21.165,16.03 -49.021,18.111 -70.186,5.247 -13.257,-9.494 -21.474,-13.603 -27.552,-34.373 -0.689,13.538 2.239,28.041 13.578,40.602 l -25.156,11.214 c -23.338,10.405 -45.506,23.512 -66.028,39.012 3.024,-9.211 3.64,-19.18 1.586,-28.926 l -2.264,-10.753 c 0.818,15.82 -3.381,31.495 -12,44.786 l -7.211,11.121 h 0.001 c -1.101,0.971 -2.198,1.947 -3.289,2.931 -22.594,20.41 -55.31,22.855 -77.904,5.823 l -86.408,-49.934 -2.446,-24.273 c -3.191,-31.671 -25.798,-56.587 -56.775,-62.572 -30.977,-5.985 -63.859,8.21 -82.577,35.65 L 30.125,344.83 c 8.913,-31.651 40.745,-52.408 72.036,-46.975 l 6.22,-12.674 c 12.675,-25.833 38.811,-42.876 66.698,-43.495 l 62.099,29.791 c 30.869,14.807 49.779,46.144 49.167,81.482 10.07,-32.159 -4.247,-59.336 -17.678,-76.756 v -0.023 l -9.678,-8.976 c -10.511,-9.747 -16.866,-23.778 -17.779,-39.266 -1.321,-22.384 -4.577,-44.396 -9.721,-65.756 h 54.843 l 3.73,10.214 c 5.826,15.955 4.369,34.547 -3.96,50.506 -1.677,3.21 -3.102,6.519 -4.275,9.889 12.672,-15.33 30.933,-23.186 38.13,-70.609 h 66.504 l -2.959,20.963 c -4.932,37.814 -24.729,72.105 -55.013,95.284 20.135,-6.224 34.345,-17.913 48.9,-41.483 l 24.048,8.559 c 14.856,4.642 29.869,8.775 45.007,12.39 l 15.112,-8.518 c 7.192,-4.054 11.607,-11.699 11.522,-19.956 -0.276,-26.667 -13.022,-51.468 -34.098,-67.239 h 55.182 l 8.562,11.384 c 20.329,27.038 20.329,64.262 0,91.298 l -11.822,-2.851 c -12.271,-2.963 -24.925,-3.788 -37.409,-2.476 0.668,0.152 1.337,0.305 2.005,0.454 18.146,4.072 34.617,13.58 47.217,27.26 l 14.068,-13.215 c 30.612,-28.759 43.76,-71.225 35.281,-111.854 z"
       style="fill:var(--logo-color);fill-opacity:1;fill-rule:evenodd;stroke:none"
       id="path3574"
       inkscape:connector-curvature="0" /></g></svg>
